<?xml version="1.0" standalone="no"?>
<!DOCTYPE svg PUBLIC "-//W3C//DTD SVG 20010904//EN"
 "http://www.w3.org/TR/2001/REC-SVG-20010904/DTD/svg10.dtd">
<svg version="1.0" xmlns="http://www.w3.org/2000/svg"
 width="456.000000pt" height="243.000000pt" viewBox="0 0 456.000000 243.000000"
 preserveAspectRatio="xMidYMid meet">

<g transform="translate(0.000000,243.000000) scale(0.100000,-0.100000)"
fill="#f7052d" stroke="none">
<path d="M1662 1972 c-428 -193 -728 -334 -734 -345 -13 -24 -1 -56 27 -69 19
-9 116 29 666 260 354 148 645 269 646 268 2 -1 -74 -164 -168 -361 -187 -394
-195 -419 -145 -462 17 -14 40 -23 61 -23 19 0 384 97 812 215 977 271 966
268 1012 298 115 76 109 281 -11 363 -35 25 -51 29 -102 28 -57 -1 -107 -21
-764 -303 -387 -166 -707 -301 -711 -299 -4 2 45 149 110 328 65 179 118 341
119 361 0 43 -25 69 -66 68 -16 0 -355 -148 -752 -327z"/>
<path d="M1770 972 c-32 -16 -48 -46 -227 -421 -106 -223 -193 -406 -193 -408
0 -2 46 -3 103 -3 l102 0 120 260 c66 143 123 260 126 260 3 0 39 -116 81
-257 l75 -258 88 0 88 0 181 257 c100 141 184 257 187 257 4 1 4 -116 1 -259
l-5 -260 92 0 91 0 0 385 c0 431 0 434 -65 455 -71 23 -87 7 -325 -332 -118
-169 -218 -307 -221 -308 -3 0 -43 134 -88 297 -73 266 -85 301 -111 326 -35
32 -52 33 -100 9z"/>
<path d="M4192 860 c-203 -22 -356 -118 -424 -265 -32 -72 -33 -231 -1 -290
61 -114 198 -175 388 -174 50 0 110 4 135 7 l45 7 18 73 c10 41 17 76 15 78
-3 2 -20 -1 -39 -6 -19 -6 -70 -13 -114 -16 -209 -17 -323 92 -273 258 16 56
79 122 146 155 53 26 65 28 182 28 69 0 139 -3 157 -7 l31 -7 15 67 c8 37 13
70 11 73 -4 7 -65 15 -174 23 -25 2 -78 0 -118 -4z"/>
<path d="M236 842 c-3 -5 -40 -158 -81 -338 -42 -181 -78 -337 -81 -346 -5
-16 4 -18 88 -18 l94 0 30 133 29 132 46 3 46 3 84 -135 84 -136 103 0 102 0
-90 135 c-50 75 -89 139 -86 144 3 4 22 13 43 20 112 37 178 128 171 236 -5
75 -30 114 -96 146 -44 22 -62 24 -263 27 -138 3 -219 1 -223 -6z m381 -137
c20 -23 24 -36 20 -68 -10 -76 -60 -105 -192 -114 -111 -7 -105 -17 -73 124
l22 95 99 -4 c95 -4 101 -5 124 -33z"/>
<path d="M1110 847 c0 -2 -36 -157 -80 -345 -44 -188 -80 -346 -80 -352 0 -7
32 -10 92 -8 l92 3 78 335 c42 184 77 343 78 353 0 15 -11 17 -90 17 -49 0
-90 -2 -90 -3z"/>
<path d="M3280 808 c-28 -31 -460 -653 -460 -663 0 -3 40 -5 89 -5 l89 0 47
75 46 75 164 0 163 0 18 -75 18 -75 88 0 c48 0 88 2 88 5 0 17 -175 625 -186
647 -18 35 -43 48 -93 48 -33 0 -46 -6 -71 -32z m80 -265 c12 -54 24 -108 27
-120 5 -23 4 -23 -106 -23 -61 0 -111 2 -111 5 0 7 160 235 165 235 2 0 13
-44 25 -97z"/>
</g>
</svg>
